# xmcd
#
# Track frame offsets: 
#        150
#        21825
#        35170
#        49998
#        67943
#        80929
#        97295
#        119807
#        134594
#        146135
#        184971
#        197942
#
# Disc length: 2850 seconds
#
# Revision: 1
# Processed by: cddbd v1.5.2PL0 Copyright (c) Steve Scherf et al.
# Submitted via: ExactAudioCopyFreeDBPlugin 1.0
#
DISCID=cb0b200c
DTITLE=Ted Roddy And James Hinkle - Podnahs!
DYEAR=2000
DGENRE=Blues
TTITLE0=Cuttin' In
TTITLE1=Love Time
TTITLE2=To Have and Not To Hold
TTITLE3=One True Heart
TTITLE4=B.J.'s Bounce
TTITLE5=Voodoo Music
TTITLE6=Strange Things Happening
TTITLE7=Blues Coming Down
TTITLE8=Do The Chicken
TTITLE9=Outside Chance
TTITLE10=Love Rustler
TTITLE11=Be-Bopping The Boogie
EXTD=
EXTT0=
EXTT1=
EXTT2=
EXTT3=
EXTT4=
EXTT5=
EXTT6=
EXTT7=
EXTT8=
EXTT9=
EXTT10=
EXTT11=
PLAYORDER=
